<?xml version="1.0" encoding="UTF-8"?><svg xmlns="http://www.w3.org/2000/svg" width="182" height="119" viewBox="0 0 182 119" fill="#000"><path d="m37.06,96.78c-6.59,6.63-4.35,13.41-.09,20.97-12.76-.64-21-8.51-12.4-19.92,2.81-3.87,6.23-7.31,9.1-10.61-10.75,2.36-15,9.74-16.49,30.09-33.82-20.27-7.08-39.8,19.46-44.85,0-13.49-.01-26.8,0-40.1.02-19.08,11.04-30.14,30.04-30.14,19.15,0,38.31,0,57.46.03,16.31.03,28.11,11.6,28.21,27.91.13,19.99.09,39.98,0,59.98-.08,15.66-11.92,27.47-27.58,27.53-19.49.08-38.98.02-58.48.01-15.29.24-23.71-6.79-29.24-20.89Zm27.58-46.39c-15.85-.7-21.38,4.8-20.07,16.86,1.83,16.7,12.62,24.09,28.57,19.47,20.8-8.37,27.68-4.81,47.9,1.24,20.87,6.99,35.04-36.2,11.44-37.59-16.86-.62-33.08,6.25-50.05,2.69-6.83-1.38-13.8-2.09-17.79-2.67Z"/><path d="m103.87,73.48c-2.7-6.29,11.38-1.28,24.73-17.45,1.8,1.64,3.34,3.05,5.18,4.72-2.98,3.39-5.83,6.42-7.07,10.61-3.33,12.1-14.35,5.02-22.84,2.12Z"/><path d="m55.49,60.53c1.51-1.41,2.94-2.75,4.71-4.4,5.93,6.34,13.98,9.89,21.77,13.17,3.74,1.35,3.86,2.74,1.93,4.57-6.1,2.07-18.11,8.89-20.72-.28-.77-5.9-5.17-8.43-7.69-13.07Z"/></svg>