<?xml version="1.0" encoding="UTF-8"?>
<svg id="a" xmlns="http://www.w3.org/2000/svg" width="190" height="190" viewBox="0 0 190 190">
<circle fill="gray" cx="95" cy="95" r="95"/>
<path d="m43.29,127.13c-6.1,5.74-4.03,11.61-.08,18.15-11.82-.55-19.45-7.37-11.49-17.24,2.6-3.35,5.77-6.33,8.43-9.18-9.96,2.04-13.89,8.43-15.27,26.05-31.33-17.55-6.56-34.45,18.03-38.82,0-11.68,0-23.2,0-34.71.02-16.52,10.23-26.09,27.83-26.09s35.49,0,53.23.03c15.11.03,26.04,10.04,26.13,24.16.12,17.3.08,34.61,0,51.92-.07,13.55-11.04,23.78-25.55,23.83-18.05.07-36.11.02-54.17,0-14.16.21-21.96-5.88-27.09-18.08h0Zm25.55-40.15c-14.68-.61-19.8,4.15-18.59,14.59,1.7,14.46,11.69,20.85,26.46,16.85,19.27-7.24,25.64-4.16,44.37,1.07,19.33,6.05,32.46-31.33,10.6-32.54-15.62-.54-30.64,5.41-46.36,2.33-6.33-1.19-12.78-1.81-16.48-2.31Z"/>
<path d="m105.18,106.96c-2.5-5.44,10.54-1.11,22.91-15.1,1.67,1.42,3.09,2.64,4.8,4.09-2.76,2.93-5.4,5.56-6.55,9.18-3.08,10.47-13.29,4.35-21.16,1.84Z"/>
<path d="m66.56,105.13c-1.15-3.63-3.79-6.25-6.55-9.18,1.7-1.45,3.13-2.67,4.8-4.09,12.37,14,25.41,9.66,22.91,15.1-7.86,2.51-18.07,8.64-21.16-1.84Z"/>
</svg>