<svg xmlns="http://www.w3.org/2000/svg" width="704" height="128" viewBox="0 0 704 128" fill="none"><svg xmlns="http://www.w3.org/2000/svg" x="0" width="92" height="128" viewBox="0 0 92 128" fill="none">
  <style>
.chart_1 {
  stroke: #007ec6;
  stroke-dasharray: 175.93;
  stroke-dashoffset: 175.93;
  fill: none;
  stroke-width: 8;
  animation: chart-animation_1 1s forwards 848ms ease-in-out;
  transform: rotate(-90deg);
  transform-origin: 46px 32px;
}
@keyframes chart-animation_1 {
  from {
    stroke-dashoffset: 175.93;
  }
  to {
    stroke-dashoffset: 35.19;
  }
}
  </style>
  <circle r="28" cx="46" cy="32" fill="#333"/>
  <circle r="28" cx="46" cy="32" stroke-width="8" stroke="#555"/>
  <circle class="chart_1" r="28" cx="46" cy="32"/>
  <svg xmlns="http://www.w3.org/2000/svg" x="23" y="16" width="46" height="32" viewBox="0 0 24 24" fill="#fff">
<path d="M21,16.5a1,1,0,0,1-.53.88l-7.9,4.44a1,1,0,0,1-1.14,0l-7.9-4.44A1,1,0,0,1,3,16.5v-9a1,1,0,0,1,.53-.88l7.9-4.44a1,1,0,0,1,1.14,0l7.9,4.44A1,1,0,0,1,21,7.5v9M12,4.15,5,8.09v7.82l7,3.94,7-3.94V8.09L12,4.15m0,2.08,4.9,2.83L12,11.89,7.1,9.06,12,6.23m5,8.66L13,17.2V13.62l4-2.31v3.58M11,17.2,7,14.89V11.31l4,2.31Z"/>
</svg>
  <g font-family="Verdana,Arial,Geneva,sans-serif" font-size="16px" fill="#888" text-anchor="middle"><text x="46" y="84">Webpack</text><text x="46" y="104">Rollup</text><text x="46" y="124">Vite</text></g>
</svg><svg xmlns="http://www.w3.org/2000/svg" x="102" width="92" height="108" viewBox="0 0 92 108" fill="none">
  <style>
.chart_2 {
  stroke: #007ec6;
  stroke-dasharray: 175.93;
  stroke-dashoffset: 175.93;
  fill: none;
  stroke-width: 8;
  animation: chart-animation_2 1s forwards 172ms ease-in-out;
  transform: rotate(-90deg);
  transform-origin: 46px 32px;
}
@keyframes chart-animation_2 {
  from {
    stroke-dashoffset: 175.93;
  }
  to {
    stroke-dashoffset: 43.98;
  }
}
  </style>
  <circle r="28" cx="46" cy="32" fill="#333"/>
  <circle r="28" cx="46" cy="32" stroke-width="8" stroke="#555"/>
  <circle class="chart_2" r="28" cx="46" cy="32"/>
  <svg xmlns="http://www.w3.org/2000/svg" x="23" y="16" width="46" height="32" viewBox="0 0 16 16" fill="#fff">
  <path d="M1.5 8a6.5 6.5 0 016.744-6.496.75.75 0 10.055-1.499 8 8 0 107.036 11.193.75.75 0 00-1.375-.6 6.722 6.722 0 01-.22.453A6.5 6.5 0 011.5 8zM11.74.926a.75.75 0 10-.703 1.326c.144.076.284.157.421.243a.75.75 0 00.8-1.27 7.995 7.995 0 00-.519-.299zM14.774 3.743a.75.75 0 00-1.27.799c.087.137.168.277.244.42a.75.75 0 001.326-.701 8.04 8.04 0 00-.3-.518zM15.995 7.7a.75.75 0 00-1.5.056 6.583 6.583 0 01.002.45.75.75 0 101.5.047 8.158 8.158 0 00-.002-.552z"/>
  <path d="M11.78 5.22a.75.75 0 010 1.06l-4.5 4.5a.75.75 0 01-1.06 0l-2-2a.75.75 0 011.06-1.06l1.47 1.47 3.97-3.97a.75.75 0 011.06 0z"/>
</svg>
  <g font-family="Verdana,Arial,Geneva,sans-serif" font-size="16px" fill="#888" text-anchor="middle"><text x="46" y="84">Jest</text><text x="46" y="104">Vitest</text></g>
</svg><svg xmlns="http://www.w3.org/2000/svg" x="204" width="92" height="128" viewBox="0 0 92 128" fill="none">
  <style>
.chart_3 {
  stroke: #007ec6;
  stroke-dasharray: 175.93;
  stroke-dashoffset: 175.93;
  fill: none;
  stroke-width: 8;
  animation: chart-animation_3 1s forwards 924ms ease-in-out;
  transform: rotate(-90deg);
  transform-origin: 46px 32px;
}
@keyframes chart-animation_3 {
  from {
    stroke-dashoffset: 175.93;
  }
  to {
    stroke-dashoffset: 43.98;
  }
}
  </style>
  <circle r="28" cx="46" cy="32" fill="#333"/>
  <circle r="28" cx="46" cy="32" stroke-width="8" stroke="#555"/>
  <circle class="chart_3" r="28" cx="46" cy="32"/>
  <svg xmlns="http://www.w3.org/2000/svg" x="23" y="16" width="46" height="32" viewBox="0 0 24 24" fill="none" stroke="#fff" stroke-width="2">
  <path d="M20 12c0 1.657-3.582 3-8 3s-8-1.343-8-3"/>
  <path d="M20 18c0 1.657-3.582 3-8 3s-8-1.343-8-3"/>
  <ellipse cx="12" cy="6" rx="8" ry="3"/>
  <path d="M4 6v12"/>
  <path d="M20 6v12"/>
</svg>
  <g font-family="Verdana,Arial,Geneva,sans-serif" font-size="16px" fill="#888" text-anchor="middle"><text x="46" y="84">Postgres</text><text x="46" y="104">TypeORM</text><text x="46" y="124">Strapi</text></g>
</svg><svg xmlns="http://www.w3.org/2000/svg" x="306" width="92" height="88" viewBox="0 0 92 88" fill="none">
  <style>
.chart_4 {
  stroke: #007ec6;
  stroke-dasharray: 175.93;
  stroke-dashoffset: 175.93;
  fill: none;
  stroke-width: 8;
  animation: chart-animation_4 1s forwards 627ms ease-in-out;
  transform: rotate(-90deg);
  transform-origin: 46px 32px;
}
@keyframes chart-animation_4 {
  from {
    stroke-dashoffset: 175.93;
  }
  to {
    stroke-dashoffset: 43.98;
  }
}
  </style>
  <circle r="28" cx="46" cy="32" fill="#333"/>
  <circle r="28" cx="46" cy="32" stroke-width="8" stroke="#555"/>
  <circle class="chart_4" r="28" cx="46" cy="32"/>
  <svg xmlns="http://www.w3.org/2000/svg" x="23" y="16" width="46" height="32" viewBox="0 0 32 32" fill="#fff">
  <path d="M30.679 13.367c-0.613-0.404-1.366-0.645-2.175-0.645-0.093 0-0.185 0.003-0.276 0.009l0.012-0.001c-0.446 0.001-0.882 0.041-1.306 0.115l0.046-0.007c-0.235-1.357-1.025-2.495-2.122-3.191l-0.019-0.011-0.429-0.248-0.282 0.408c-0.336 0.512-0.599 1.108-0.756 1.745l-0.008 0.039c-0.089 0.324-0.14 0.696-0.14 1.080 0 0.831 0.24 1.605 0.654 2.258l-0.010-0.017c-0.637 0.299-1.381 0.488-2.164 0.524l-0.013 0h-19.729c-0.516 0.001-0.934 0.418-0.936 0.933v0c-0.001 0.056-0.001 0.123-0.001 0.19 0 1.751 0.317 3.428 0.897 4.977l-0.032-0.098c0.558 1.633 1.612 2.975 2.98 3.881l0.028 0.017c1.744 0.903 3.808 1.432 5.995 1.432 0.207 0 0.412-0.005 0.617-0.014l-0.029 0.001c0.018 0 0.039 0 0.060 0 1.272 0 2.515-0.121 3.72-0.352l-0.123 0.020c1.795-0.336 3.395-0.939 4.845-1.773l-0.074 0.039c1.257-0.735 2.331-1.621 3.245-2.652l0.012-0.014c1.325-1.56 2.403-3.381 3.145-5.365l0.041-0.125h0.276c0.055 0.002 0.119 0.004 0.183 0.004 1.226 0 2.34-0.481 3.163-1.265l-0.002 0.002c0.377-0.358 0.676-0.793 0.873-1.281l0.009-0.024 0.122-0.359zM3.79 14.849h2.646c0.127-0.001 0.23-0.104 0.23-0.231 0 0 0 0 0 0v0-2.355c0-0 0-0.001 0-0.001 0-0.127-0.103-0.23-0.23-0.231h-2.646c-0.127 0.001-0.23 0.104-0.23 0.231v0 2.356c0 0 0 0 0 0.001 0 0.127 0.103 0.23 0.23 0.23 0 0 0 0 0.001 0h-0zM7.434 14.849h2.644c0.127 0 0.231-0.103 0.231-0.231 0 0 0 0 0-0v0-2.355c0-0 0-0.001 0-0.001 0-0.127-0.103-0.23-0.23-0.231h-2.646c-0 0-0 0-0 0-0.128 0-0.232 0.104-0.232 0.232 0 0 0 0 0 0v0 2.355c0.001 0.128 0.104 0.231 0.232 0.231v0zM11.132 14.849h2.646c0.127-0.001 0.23-0.104 0.23-0.231 0 0 0 0 0 0v0-2.355c0-0 0-0.001 0-0.001 0-0.127-0.103-0.23-0.23-0.231h-2.646c-0.127 0.001-0.23 0.104-0.23 0.231v0 2.356c0 0.127 0.103 0.231 0.231 0.231v0zM14.788 14.849h2.643c0 0 0 0 0 0 0.128 0 0.231-0.103 0.232-0.231v-2.355c0-0 0-0 0-0 0-0.128-0.104-0.232-0.232-0.232-0 0-0 0-0 0h-2.643c-0.127 0-0.231 0.103-0.231 0.231v0 2.356c0 0 0 0 0 0.001 0 0.127 0.103 0.23 0.23 0.23 0 0 0 0 0.001 0h-0zM7.434 11.461h2.644c0.128-0.001 0.231-0.104 0.231-0.232 0 0 0 0 0 0v0-2.355c0 0 0 0 0-0 0-0.127-0.103-0.231-0.231-0.231h-2.644c-0.128 0-0.231 0.103-0.232 0.231v2.355c0.001 0.128 0.104 0.231 0.232 0.232h0zM11.132 11.461h2.646c0.127-0.001 0.23-0.105 0.23-0.232v0-2.355c0 0 0 0 0-0 0-0.127-0.103-0.231-0.231-0.231h-2.643c-0.127 0-0.231 0.103-0.231 0.231 0 0 0 0 0 0v0 2.355c0.001 0.128 0.103 0.231 0.231 0.232h0zM14.788 11.461h2.643c0.128-0.001 0.231-0.104 0.232-0.232v-2.355c-0.001-0.128-0.104-0.231-0.232-0.231h-2.643c-0.127 0-0.231 0.103-0.231 0.231 0 0 0 0 0 0v0 2.355c0 0.128 0.103 0.231 0.231 0.232h0zM14.788 8.073h2.643c0 0 0 0 0 0 0.128 0 0.232-0.104 0.232-0.232 0-0 0-0 0-0v0-2.356c-0.001-0.128-0.104-0.231-0.232-0.231 0 0-0 0-0 0h-2.643c-0.127 0-0.231 0.103-0.231 0.231v0 2.356c0 0 0 0 0 0.001 0 0.127 0.103 0.23 0.23 0.23 0 0 0 0 0.001 0h-0zM18.475 14.849h2.644c0 0 0 0 0 0 0.128 0 0.231-0.103 0.232-0.231v-2.355c0-0 0-0 0-0 0-0.128-0.104-0.232-0.232-0.232-0 0-0 0-0 0h-2.644c0 0 0 0-0 0-0.128 0-0.231 0.103-0.231 0.231v2.356c0 0.127 0.103 0.231 0.231 0.231v0z"/>
</svg>
  <g font-family="Verdana,Arial,Geneva,sans-serif" font-size="16px" fill="#888" text-anchor="middle"><text x="46" y="84">Docker</text></g>
</svg><svg xmlns="http://www.w3.org/2000/svg" x="408" width="92" height="108" viewBox="0 0 92 108" fill="none">
  <style>
.chart_5 {
  stroke: #007ec6;
  stroke-dasharray: 175.93;
  stroke-dashoffset: 175.93;
  fill: none;
  stroke-width: 8;
  animation: chart-animation_5 1s forwards 18ms ease-in-out;
  transform: rotate(-90deg);
  transform-origin: 46px 32px;
}
@keyframes chart-animation_5 {
  from {
    stroke-dashoffset: 175.93;
  }
  to {
    stroke-dashoffset: 35.19;
  }
}
  </style>
  <circle r="28" cx="46" cy="32" fill="#333"/>
  <circle r="28" cx="46" cy="32" stroke-width="8" stroke="#555"/>
  <circle class="chart_5" r="28" cx="46" cy="32"/>
  <svg xmlns="http://www.w3.org/2000/svg" x="23" y="16" width="46" height="32" viewBox="0 0 256 256" fill="#fff">
<path d="M112,11c-16,6-22,22-21,52c1,22-1,29-11,44c-7,9-16,26-20,37C53,164,53,166,63,173C79,186,96,213,96,225c0,12-11,13-42,5c-15-4-18-7-18-17c0-7,5-17,11-23l11-9l-15,7c-12,5-15,10-15,24c0,15,1,17,29,26c27,9,30,9,47,1c17-8,50-6,56,3c5,8,18,4,43-11c13-8,25-16,25-18s-5-7-12-14c-9-8-12-9-12-4c0,4,3,8,7,10c4,2,7,5,7,7c0,6-45,27-50,23c-6-4-6-54,0-54c2,0,4,2,4,5c0,9,20,5,27-6c10-15,3-44-17-73c-10-14-17-31-20-49c-2-14-5-29-7-32C150,13,125,6,112,11z M146,59c0,3-1,3-3-1c-3-7-16-8-16-0c0,3,3,8,7,11c8,6,32,67,34,85c1,7-1,16-4,20c-3,4-6,12-7,20c-1,7-7,15-15,19c-17,8-41,4-37-7c1-4-3-12-12-21c-18-15-18-16-4-59c10-33,16-41,21-28c1,5,5,5,15-0c20-10,17-19-4-16c-13,1-17,0-17-6c0-4,2-8,5-8c3,0,10-5,16-12c8-9,12-11,17-7C144,50,147,56,146,59z"/>
</svg>
  <g font-family="Verdana,Arial,Geneva,sans-serif" font-size="16px" fill="#888" text-anchor="middle"><text x="46" y="84">Linux</text><text x="46" y="104">Nginx</text></g>
</svg><svg xmlns="http://www.w3.org/2000/svg" x="510" width="92" height="88" viewBox="0 0 92 88" fill="none">
  <style>
.chart_6 {
  stroke: #007ec6;
  stroke-dasharray: 175.93;
  stroke-dashoffset: 175.93;
  fill: none;
  stroke-width: 8;
  animation: chart-animation_6 1s forwards 394ms ease-in-out;
  transform: rotate(-90deg);
  transform-origin: 46px 32px;
}
@keyframes chart-animation_6 {
  from {
    stroke-dashoffset: 175.93;
  }
  to {
    stroke-dashoffset: 87.96;
  }
}
  </style>
  <circle r="28" cx="46" cy="32" fill="#333"/>
  <circle r="28" cx="46" cy="32" stroke-width="8" stroke="#555"/>
  <circle class="chart_6" r="28" cx="46" cy="32"/>
  <svg xmlns="http://www.w3.org/2000/svg" x="23" y="16" width="46" height="32" viewBox="0 0 24 24" fill="none" stroke="#fff" stroke-width="2">
<path d="M19 11C21 11 23 12 23 15C23 17 21 19 19 19L6 19C3 19 1 16 1 13C1 11 3 9 5 9C6 6 9 5 12 5C15 5 18 7 18 11C18 11 18 11 19 11Z"/>
</svg>
  <g font-family="Verdana,Arial,Geneva,sans-serif" font-size="16px" fill="#888" text-anchor="middle"><text x="46" y="84">aws</text></g>
</svg><svg xmlns="http://www.w3.org/2000/svg" x="612" width="92" height="108" viewBox="0 0 92 108" fill="none">
  <style>
.chart_7 {
  stroke: #007ec6;
  stroke-dasharray: 175.93;
  stroke-dashoffset: 175.93;
  fill: none;
  stroke-width: 8;
  animation: chart-animation_7 1s forwards 484ms ease-in-out;
  transform: rotate(-90deg);
  transform-origin: 46px 32px;
}
@keyframes chart-animation_7 {
  from {
    stroke-dashoffset: 175.93;
  }
  to {
    stroke-dashoffset: 17.59;
  }
}
  </style>
  <circle r="28" cx="46" cy="32" fill="#333"/>
  <circle r="28" cx="46" cy="32" stroke-width="8" stroke="#555"/>
  <circle class="chart_7" r="28" cx="46" cy="32"/>
  <svg xmlns="http://www.w3.org/2000/svg" x="23" y="16" width="46" height="32" fill="#fff" viewBox="0 0 256 256">
<path d="M224.32,114.24a56,56,0,0,0-60.07-76.57A56,56,0,0,0,67.93,51.44a56,56,0,0,0-36.25,90.32A56,56,0,0,0,69,217,56.39,56.39,0,0,0,83.59,219a55.75,55.75,0,0,0,8.17-.61,56,56,0,0,0,96.31-13.78,56,56,0,0,0,36.25-90.32ZM182.85,54.43a40,40,0,0,1,28.56,48c-.95-.63-1.91-1.24-2.91-1.81L164,74.88a8,8,0,0,0-8,0l-44,25.41V81.81l40.5-23.38A39.76,39.76,0,0,1,182.85,54.43ZM144,137.24l-16,9.24-16-9.24V118.76l16-9.24,16,9.24ZM80,72a40,40,0,0,1,67.53-29c-1,.51-2,1-3,1.62L100,70.27a8,8,0,0,0-4,6.92V128l-16-9.24ZM40.86,86.93A39.75,39.75,0,0,1,64.12,68.57C64.05,69.71,64,70.85,64,72v51.38a8,8,0,0,0,4,6.93l44,25.4L96,165,55.5,141.57A40,40,0,0,1,40.86,86.93ZM73.15,201.57a40,40,0,0,1-28.56-48c.95.63,1.91,1.24,2.91,1.81L92,181.12a8,8,0,0,0,8,0l44-25.41v18.48l-40.5,23.38A39.76,39.76,0,0,1,73.15,201.57ZM176,184a40,40,0,0,1-67.52,29.05c1-.51,2-1.05,3-1.63L156,185.73a8,8,0,0,0,4-6.92V128l16,9.24Zm39.14-14.93a39.75,39.75,0,0,1-23.26,18.36c.07-1.14.12-2.28.12-3.43V132.62a8,8,0,0,0-4-6.93l-44-25.4,16-9.24,40.5,23.38A40,40,0,0,1,215.14,169.07Z"/>
</svg>

  <g font-family="Verdana,Arial,Geneva,sans-serif" font-size="16px" fill="#888" text-anchor="middle"><text x="46" y="84">completion</text><text x="46" y="104">generate</text></g>
</svg></svg>
